<mxfile host="Electron" modified="2024-04-10T20:20:26.319Z" agent="Mozilla/5.0 (Windows NT 10.0; Win64; x64) AppleWebKit/537.36 (KHTML, like Gecko) draw.io/21.2.1 Chrome/112.0.5615.87 Electron/24.1.2 Safari/537.36" etag="c6wahFbT9ERmAEY3Sq9V" version="21.2.1" type="device" pages="3">
  <diagram name="вызовы" id="FAwuW0RQEhGEqo3Np-p5">
    <mxGraphModel dx="1874" dy="1196" grid="1" gridSize="10" guides="1" tooltips="1" connect="1" arrows="1" fold="1" page="0" pageScale="1" pageWidth="827" pageHeight="1169" math="0" shadow="0">
      <root>
        <mxCell id="0" />
        <mxCell id="1" parent="0" />
        <mxCell id="4-XyA4ET-KvincBD4Bmp-8" style="edgeStyle=orthogonalEdgeStyle;rounded=0;orthogonalLoop=1;jettySize=auto;html=1;" edge="1" parent="1" source="4-XyA4ET-KvincBD4Bmp-1" target="4-XyA4ET-KvincBD4Bmp-7">
          <mxGeometry relative="1" as="geometry" />
        </mxCell>
        <mxCell id="4-XyA4ET-KvincBD4Bmp-1" value="main" style="rounded=0;whiteSpace=wrap;html=1;" vertex="1" parent="1">
          <mxGeometry x="430" y="250" width="120" height="60" as="geometry" />
        </mxCell>
        <mxCell id="4-XyA4ET-KvincBD4Bmp-13" style="edgeStyle=orthogonalEdgeStyle;rounded=0;orthogonalLoop=1;jettySize=auto;html=1;exitX=0.5;exitY=1;exitDx=0;exitDy=0;entryX=0.5;entryY=0;entryDx=0;entryDy=0;" edge="1" parent="1" source="4-XyA4ET-KvincBD4Bmp-3" target="4-XyA4ET-KvincBD4Bmp-12">
          <mxGeometry relative="1" as="geometry" />
        </mxCell>
        <mxCell id="4-XyA4ET-KvincBD4Bmp-3" value="ActionsFromXML::ActionsFromXML" style="rounded=0;whiteSpace=wrap;html=1;" vertex="1" parent="1">
          <mxGeometry x="-70" y="470" width="206" height="60" as="geometry" />
        </mxCell>
        <mxCell id="4-XyA4ET-KvincBD4Bmp-4" value="" style="endArrow=classic;html=1;rounded=0;exitX=0;exitY=1;exitDx=0;exitDy=0;entryX=0.5;entryY=0;entryDx=0;entryDy=0;" edge="1" parent="1" source="4-XyA4ET-KvincBD4Bmp-1" target="4-XyA4ET-KvincBD4Bmp-3">
          <mxGeometry width="50" height="50" relative="1" as="geometry">
            <mxPoint x="190" y="610" as="sourcePoint" />
            <mxPoint x="240" y="560" as="targetPoint" />
          </mxGeometry>
        </mxCell>
        <mxCell id="4-XyA4ET-KvincBD4Bmp-5" value="ActionsFromXML::getActions" style="rounded=0;whiteSpace=wrap;html=1;" vertex="1" parent="1">
          <mxGeometry x="136" y="470" width="206" height="60" as="geometry" />
        </mxCell>
        <mxCell id="4-XyA4ET-KvincBD4Bmp-29" style="edgeStyle=orthogonalEdgeStyle;rounded=0;orthogonalLoop=1;jettySize=auto;html=1;entryX=0.5;entryY=0;entryDx=0;entryDy=0;" edge="1" parent="1" source="4-XyA4ET-KvincBD4Bmp-7" target="4-XyA4ET-KvincBD4Bmp-28">
          <mxGeometry relative="1" as="geometry" />
        </mxCell>
        <mxCell id="4-XyA4ET-KvincBD4Bmp-7" value="Action::perform" style="rounded=0;whiteSpace=wrap;html=1;" vertex="1" parent="1">
          <mxGeometry x="380" y="470" width="220" height="60" as="geometry" />
        </mxCell>
        <mxCell id="4-XyA4ET-KvincBD4Bmp-9" value="ResultActionsToTxt::ResultActionsToTxt" style="rounded=0;whiteSpace=wrap;html=1;" vertex="1" parent="1">
          <mxGeometry x="670" y="480" width="236" height="60" as="geometry" />
        </mxCell>
        <mxCell id="4-XyA4ET-KvincBD4Bmp-11" value="" style="endArrow=classic;html=1;rounded=0;exitX=0;exitY=1;exitDx=0;exitDy=0;entryX=0.5;entryY=0;entryDx=0;entryDy=0;" edge="1" parent="1" source="4-XyA4ET-KvincBD4Bmp-1" target="4-XyA4ET-KvincBD4Bmp-5">
          <mxGeometry width="50" height="50" relative="1" as="geometry">
            <mxPoint x="240" y="570" as="sourcePoint" />
            <mxPoint x="290" y="520" as="targetPoint" />
          </mxGeometry>
        </mxCell>
        <mxCell id="4-XyA4ET-KvincBD4Bmp-19" style="edgeStyle=orthogonalEdgeStyle;rounded=0;orthogonalLoop=1;jettySize=auto;html=1;" edge="1" parent="1" source="4-XyA4ET-KvincBD4Bmp-12" target="4-XyA4ET-KvincBD4Bmp-18">
          <mxGeometry relative="1" as="geometry" />
        </mxCell>
        <mxCell id="4-XyA4ET-KvincBD4Bmp-12" value="ActionsFromXML::loadActions" style="rounded=0;whiteSpace=wrap;html=1;" vertex="1" parent="1">
          <mxGeometry x="-70" y="566" width="206" height="60" as="geometry" />
        </mxCell>
        <mxCell id="4-XyA4ET-KvincBD4Bmp-14" value="" style="endArrow=classic;html=1;rounded=0;exitX=1;exitY=1;exitDx=0;exitDy=0;entryX=1;entryY=0;entryDx=0;entryDy=0;" edge="1" parent="1" source="4-XyA4ET-KvincBD4Bmp-1" target="4-XyA4ET-KvincBD4Bmp-9">
          <mxGeometry width="50" height="50" relative="1" as="geometry">
            <mxPoint x="240" y="570" as="sourcePoint" />
            <mxPoint x="290" y="520" as="targetPoint" />
          </mxGeometry>
        </mxCell>
        <mxCell id="4-XyA4ET-KvincBD4Bmp-17" value="ResultActionsToTxt::writeResults" style="rounded=0;whiteSpace=wrap;html=1;" vertex="1" parent="1">
          <mxGeometry x="906" y="480" width="236" height="60" as="geometry" />
        </mxCell>
        <mxCell id="4-XyA4ET-KvincBD4Bmp-34" style="edgeStyle=orthogonalEdgeStyle;rounded=0;orthogonalLoop=1;jettySize=auto;html=1;entryX=0.5;entryY=0;entryDx=0;entryDy=0;" edge="1" parent="1" source="4-XyA4ET-KvincBD4Bmp-18" target="4-XyA4ET-KvincBD4Bmp-20">
          <mxGeometry relative="1" as="geometry" />
        </mxCell>
        <mxCell id="4-XyA4ET-KvincBD4Bmp-18" value="Action::Actions" style="rounded=0;whiteSpace=wrap;html=1;" vertex="1" parent="1">
          <mxGeometry x="-77" y="670" width="220" height="60" as="geometry" />
        </mxCell>
        <mxCell id="4-XyA4ET-KvincBD4Bmp-32" style="edgeStyle=orthogonalEdgeStyle;rounded=0;orthogonalLoop=1;jettySize=auto;html=1;" edge="1" parent="1" source="4-XyA4ET-KvincBD4Bmp-20">
          <mxGeometry relative="1" as="geometry">
            <mxPoint x="33" y="900" as="targetPoint" />
          </mxGeometry>
        </mxCell>
        <mxCell id="4-XyA4ET-KvincBD4Bmp-20" value="Action::setTerm" style="rounded=0;whiteSpace=wrap;html=1;" vertex="1" parent="1">
          <mxGeometry x="-27" y="780" width="120" height="60" as="geometry" />
        </mxCell>
        <mxCell id="4-XyA4ET-KvincBD4Bmp-21" value="Action::setOperation" style="rounded=0;whiteSpace=wrap;html=1;" vertex="1" parent="1">
          <mxGeometry x="-170" y="780" width="120" height="60" as="geometry" />
        </mxCell>
        <mxCell id="4-XyA4ET-KvincBD4Bmp-22" value="Action::checkAction" style="rounded=0;whiteSpace=wrap;html=1;" vertex="1" parent="1">
          <mxGeometry x="120" y="780" width="120" height="60" as="geometry" />
        </mxCell>
        <mxCell id="4-XyA4ET-KvincBD4Bmp-23" value="" style="endArrow=classic;html=1;rounded=0;exitX=0.5;exitY=1;exitDx=0;exitDy=0;entryX=0.5;entryY=0;entryDx=0;entryDy=0;" edge="1" parent="1" source="4-XyA4ET-KvincBD4Bmp-18" target="4-XyA4ET-KvincBD4Bmp-21">
          <mxGeometry width="50" height="50" relative="1" as="geometry">
            <mxPoint x="320" y="690" as="sourcePoint" />
            <mxPoint x="370" y="640" as="targetPoint" />
          </mxGeometry>
        </mxCell>
        <mxCell id="4-XyA4ET-KvincBD4Bmp-25" value="" style="endArrow=classic;html=1;rounded=0;exitX=0.5;exitY=1;exitDx=0;exitDy=0;entryX=0.5;entryY=0;entryDx=0;entryDy=0;" edge="1" parent="1" source="4-XyA4ET-KvincBD4Bmp-18" target="4-XyA4ET-KvincBD4Bmp-22">
          <mxGeometry width="50" height="50" relative="1" as="geometry">
            <mxPoint x="320" y="690" as="sourcePoint" />
            <mxPoint x="370" y="640" as="targetPoint" />
          </mxGeometry>
        </mxCell>
        <mxCell id="4-XyA4ET-KvincBD4Bmp-54" style="edgeStyle=orthogonalEdgeStyle;rounded=0;orthogonalLoop=1;jettySize=auto;html=1;exitX=0.5;exitY=1;exitDx=0;exitDy=0;entryX=0.5;entryY=0;entryDx=0;entryDy=0;" edge="1" parent="1" source="4-XyA4ET-KvincBD4Bmp-28" target="4-XyA4ET-KvincBD4Bmp-40">
          <mxGeometry relative="1" as="geometry" />
        </mxCell>
        <mxCell id="4-XyA4ET-KvincBD4Bmp-28" value="BigRealNumber::(operation+ ... operation&amp;gt;=)" style="rounded=0;whiteSpace=wrap;html=1;" vertex="1" parent="1">
          <mxGeometry x="220" y="585" width="540" height="60" as="geometry" />
        </mxCell>
        <mxCell id="4-XyA4ET-KvincBD4Bmp-30" value="Aciton::setErrorResutl" style="rounded=0;whiteSpace=wrap;html=1;" vertex="1" parent="1">
          <mxGeometry x="-27" y="900" width="120" height="60" as="geometry" />
        </mxCell>
        <mxCell id="4-XyA4ET-KvincBD4Bmp-31" value="" style="endArrow=classic;html=1;rounded=0;exitX=0.5;exitY=1;exitDx=0;exitDy=0;entryX=0.5;entryY=0;entryDx=0;entryDy=0;" edge="1" parent="1" source="4-XyA4ET-KvincBD4Bmp-21" target="4-XyA4ET-KvincBD4Bmp-30">
          <mxGeometry width="50" height="50" relative="1" as="geometry">
            <mxPoint x="110" y="730" as="sourcePoint" />
            <mxPoint x="160" y="680" as="targetPoint" />
          </mxGeometry>
        </mxCell>
        <mxCell id="4-XyA4ET-KvincBD4Bmp-33" value="" style="endArrow=classic;html=1;rounded=0;exitX=0.5;exitY=1;exitDx=0;exitDy=0;entryX=0.5;entryY=0;entryDx=0;entryDy=0;" edge="1" parent="1" source="4-XyA4ET-KvincBD4Bmp-22" target="4-XyA4ET-KvincBD4Bmp-30">
          <mxGeometry width="50" height="50" relative="1" as="geometry">
            <mxPoint x="110" y="730" as="sourcePoint" />
            <mxPoint x="160" y="680" as="targetPoint" />
          </mxGeometry>
        </mxCell>
        <mxCell id="4-XyA4ET-KvincBD4Bmp-37" value="getFirstNotZero" style="rounded=0;whiteSpace=wrap;html=1;" vertex="1" parent="1">
          <mxGeometry x="730" y="740" width="120" height="60" as="geometry" />
        </mxCell>
        <mxCell id="4-XyA4ET-KvincBD4Bmp-38" value="arrShift" style="rounded=0;whiteSpace=wrap;html=1;" vertex="1" parent="1">
          <mxGeometry x="250" y="680" width="120" height="60" as="geometry" />
        </mxCell>
        <mxCell id="4-XyA4ET-KvincBD4Bmp-39" value="appendToFract" style="rounded=0;whiteSpace=wrap;html=1;" vertex="1" parent="1">
          <mxGeometry x="610" y="740" width="120" height="60" as="geometry" />
        </mxCell>
        <mxCell id="4-XyA4ET-KvincBD4Bmp-40" value="BigRealNumber::removeInsignedDigits" style="rounded=0;whiteSpace=wrap;html=1;" vertex="1" parent="1">
          <mxGeometry x="517" y="680" width="270" height="60" as="geometry" />
        </mxCell>
        <mxCell id="4-XyA4ET-KvincBD4Bmp-41" value="shiftNumber" style="rounded=0;whiteSpace=wrap;html=1;" vertex="1" parent="1">
          <mxGeometry x="370" y="740" width="120" height="60" as="geometry" />
        </mxCell>
        <mxCell id="4-XyA4ET-KvincBD4Bmp-42" value="BigRealNumber::setVal" style="rounded=0;whiteSpace=wrap;html=1;" vertex="1" parent="1">
          <mxGeometry x="370" y="680" width="150" height="60" as="geometry" />
        </mxCell>
        <mxCell id="4-XyA4ET-KvincBD4Bmp-43" value="appendToInt" style="rounded=0;whiteSpace=wrap;html=1;" vertex="1" parent="1">
          <mxGeometry x="490" y="740" width="120" height="60" as="geometry" />
        </mxCell>
        <mxCell id="4-XyA4ET-KvincBD4Bmp-44" value="BigRealNumber::attachArrsy" style="rounded=0;whiteSpace=wrap;html=1;" vertex="1" parent="1">
          <mxGeometry x="850" y="740" width="170" height="60" as="geometry" />
        </mxCell>
        <mxCell id="4-XyA4ET-KvincBD4Bmp-45" value="BigRealNumber::divRemaind" style="rounded=0;whiteSpace=wrap;html=1;" vertex="1" parent="1">
          <mxGeometry x="787" y="680" width="173" height="60" as="geometry" />
        </mxCell>
        <mxCell id="4-XyA4ET-KvincBD4Bmp-46" value="divRemaind" style="rounded=0;whiteSpace=wrap;html=1;" vertex="1" parent="1">
          <mxGeometry x="250" y="740" width="120" height="60" as="geometry" />
        </mxCell>
        <mxCell id="4-XyA4ET-KvincBD4Bmp-49" value="BigRealNumber::toString" style="rounded=0;whiteSpace=wrap;html=1;" vertex="1" parent="1">
          <mxGeometry x="775" y="585" width="170" height="60" as="geometry" />
        </mxCell>
        <mxCell id="4-XyA4ET-KvincBD4Bmp-52" value="" style="endArrow=classic;html=1;rounded=0;exitX=0.5;exitY=1;exitDx=0;exitDy=0;entryX=0.5;entryY=0;entryDx=0;entryDy=0;" edge="1" parent="1" source="4-XyA4ET-KvincBD4Bmp-7" target="4-XyA4ET-KvincBD4Bmp-49">
          <mxGeometry width="50" height="50" relative="1" as="geometry">
            <mxPoint x="640" y="600" as="sourcePoint" />
            <mxPoint x="690" y="550" as="targetPoint" />
          </mxGeometry>
        </mxCell>
        <mxCell id="4-XyA4ET-KvincBD4Bmp-53" value="BigRealNumber::BigRealNumber" style="rounded=0;whiteSpace=wrap;html=1;" vertex="1" parent="1">
          <mxGeometry x="960" y="680" width="210" height="60" as="geometry" />
        </mxCell>
      </root>
    </mxGraphModel>
  </diagram>
  <diagram id="b-F338wreHd_B2pCk2TO" name="классы">
    <mxGraphModel dx="1417" dy="825" grid="1" gridSize="10" guides="1" tooltips="1" connect="1" arrows="1" fold="1" page="0" pageScale="1" pageWidth="827" pageHeight="1169" math="0" shadow="0">
      <root>
        <mxCell id="0" />
        <mxCell id="1" parent="0" />
        <mxCell id="8yw6Mq8DgCn_tEcuC7Rp-1" value="BigRealNumber" style="swimlane;fontStyle=1;align=center;verticalAlign=top;childLayout=stackLayout;horizontal=1;startSize=26;horizontalStack=0;resizeParent=1;resizeParentMax=0;resizeLast=0;collapsible=1;marginBottom=0;whiteSpace=wrap;html=1;" vertex="1" parent="1">
          <mxGeometry x="380" y="90" width="200" height="580" as="geometry" />
        </mxCell>
        <mxCell id="8yw6Mq8DgCn_tEcuC7Rp-5" value="+ intPrt: short*" style="text;strokeColor=none;fillColor=none;align=left;verticalAlign=top;spacingLeft=4;spacingRight=4;overflow=hidden;rotatable=0;points=[[0,0.5],[1,0.5]];portConstraint=eastwest;whiteSpace=wrap;html=1;" vertex="1" parent="8yw6Mq8DgCn_tEcuC7Rp-1">
          <mxGeometry y="26" width="200" height="26" as="geometry" />
        </mxCell>
        <mxCell id="8yw6Mq8DgCn_tEcuC7Rp-6" value="+ fractPrt: short*" style="text;strokeColor=none;fillColor=none;align=left;verticalAlign=top;spacingLeft=4;spacingRight=4;overflow=hidden;rotatable=0;points=[[0,0.5],[1,0.5]];portConstraint=eastwest;whiteSpace=wrap;html=1;" vertex="1" parent="8yw6Mq8DgCn_tEcuC7Rp-1">
          <mxGeometry y="52" width="200" height="26" as="geometry" />
        </mxCell>
        <mxCell id="8yw6Mq8DgCn_tEcuC7Rp-8" value="+ intPrtLen: int" style="text;strokeColor=none;fillColor=none;align=left;verticalAlign=top;spacingLeft=4;spacingRight=4;overflow=hidden;rotatable=0;points=[[0,0.5],[1,0.5]];portConstraint=eastwest;whiteSpace=wrap;html=1;" vertex="1" parent="8yw6Mq8DgCn_tEcuC7Rp-1">
          <mxGeometry y="78" width="200" height="26" as="geometry" />
        </mxCell>
        <mxCell id="8yw6Mq8DgCn_tEcuC7Rp-7" value="+ fractPrtLen: int" style="text;strokeColor=none;fillColor=none;align=left;verticalAlign=top;spacingLeft=4;spacingRight=4;overflow=hidden;rotatable=0;points=[[0,0.5],[1,0.5]];portConstraint=eastwest;whiteSpace=wrap;html=1;" vertex="1" parent="8yw6Mq8DgCn_tEcuC7Rp-1">
          <mxGeometry y="104" width="200" height="26" as="geometry" />
        </mxCell>
        <mxCell id="8yw6Mq8DgCn_tEcuC7Rp-2" value="+ isNegative: bool" style="text;strokeColor=none;fillColor=none;align=left;verticalAlign=top;spacingLeft=4;spacingRight=4;overflow=hidden;rotatable=0;points=[[0,0.5],[1,0.5]];portConstraint=eastwest;whiteSpace=wrap;html=1;" vertex="1" parent="8yw6Mq8DgCn_tEcuC7Rp-1">
          <mxGeometry y="130" width="200" height="26" as="geometry" />
        </mxCell>
        <mxCell id="8yw6Mq8DgCn_tEcuC7Rp-3" value="" style="line;strokeWidth=1;fillColor=none;align=left;verticalAlign=middle;spacingTop=-1;spacingLeft=3;spacingRight=3;rotatable=0;labelPosition=right;points=[];portConstraint=eastwest;strokeColor=inherit;" vertex="1" parent="8yw6Mq8DgCn_tEcuC7Rp-1">
          <mxGeometry y="156" width="200" height="8" as="geometry" />
        </mxCell>
        <mxCell id="8yw6Mq8DgCn_tEcuC7Rp-4" value="+ BigRealNumber: -" style="text;strokeColor=none;fillColor=none;align=left;verticalAlign=top;spacingLeft=4;spacingRight=4;overflow=hidden;rotatable=0;points=[[0,0.5],[1,0.5]];portConstraint=eastwest;whiteSpace=wrap;html=1;" vertex="1" parent="8yw6Mq8DgCn_tEcuC7Rp-1">
          <mxGeometry y="164" width="200" height="26" as="geometry" />
        </mxCell>
        <mxCell id="8yw6Mq8DgCn_tEcuC7Rp-11" value="+ getIntPrtLen: int" style="text;strokeColor=none;fillColor=none;align=left;verticalAlign=top;spacingLeft=4;spacingRight=4;overflow=hidden;rotatable=0;points=[[0,0.5],[1,0.5]];portConstraint=eastwest;whiteSpace=wrap;html=1;" vertex="1" parent="8yw6Mq8DgCn_tEcuC7Rp-1">
          <mxGeometry y="190" width="200" height="26" as="geometry" />
        </mxCell>
        <mxCell id="8yw6Mq8DgCn_tEcuC7Rp-12" value="+ getFractPrt: int" style="text;strokeColor=none;fillColor=none;align=left;verticalAlign=top;spacingLeft=4;spacingRight=4;overflow=hidden;rotatable=0;points=[[0,0.5],[1,0.5]];portConstraint=eastwest;whiteSpace=wrap;html=1;" vertex="1" parent="8yw6Mq8DgCn_tEcuC7Rp-1">
          <mxGeometry y="216" width="200" height="26" as="geometry" />
        </mxCell>
        <mxCell id="8yw6Mq8DgCn_tEcuC7Rp-15" value="+ toString: string" style="text;strokeColor=none;fillColor=none;align=left;verticalAlign=top;spacingLeft=4;spacingRight=4;overflow=hidden;rotatable=0;points=[[0,0.5],[1,0.5]];portConstraint=eastwest;whiteSpace=wrap;html=1;" vertex="1" parent="8yw6Mq8DgCn_tEcuC7Rp-1">
          <mxGeometry y="242" width="200" height="26" as="geometry" />
        </mxCell>
        <mxCell id="8yw6Mq8DgCn_tEcuC7Rp-14" value="+ operator+: BigRealNumber" style="text;strokeColor=none;fillColor=none;align=left;verticalAlign=top;spacingLeft=4;spacingRight=4;overflow=hidden;rotatable=0;points=[[0,0.5],[1,0.5]];portConstraint=eastwest;whiteSpace=wrap;html=1;" vertex="1" parent="8yw6Mq8DgCn_tEcuC7Rp-1">
          <mxGeometry y="268" width="200" height="26" as="geometry" />
        </mxCell>
        <mxCell id="8yw6Mq8DgCn_tEcuC7Rp-30" value="+ pow: BigRealNumber" style="text;strokeColor=none;fillColor=none;align=left;verticalAlign=top;spacingLeft=4;spacingRight=4;overflow=hidden;rotatable=0;points=[[0,0.5],[1,0.5]];portConstraint=eastwest;whiteSpace=wrap;html=1;" vertex="1" parent="8yw6Mq8DgCn_tEcuC7Rp-1">
          <mxGeometry y="294" width="200" height="26" as="geometry" />
        </mxCell>
        <mxCell id="8yw6Mq8DgCn_tEcuC7Rp-31" value="+ factorial: BigRealNumber" style="text;strokeColor=none;fillColor=none;align=left;verticalAlign=top;spacingLeft=4;spacingRight=4;overflow=hidden;rotatable=0;points=[[0,0.5],[1,0.5]];portConstraint=eastwest;whiteSpace=wrap;html=1;" vertex="1" parent="8yw6Mq8DgCn_tEcuC7Rp-1">
          <mxGeometry y="320" width="200" height="26" as="geometry" />
        </mxCell>
        <mxCell id="8yw6Mq8DgCn_tEcuC7Rp-21" value="+ operator-: BigRealNumber" style="text;strokeColor=none;fillColor=none;align=left;verticalAlign=top;spacingLeft=4;spacingRight=4;overflow=hidden;rotatable=0;points=[[0,0.5],[1,0.5]];portConstraint=eastwest;whiteSpace=wrap;html=1;" vertex="1" parent="8yw6Mq8DgCn_tEcuC7Rp-1">
          <mxGeometry y="346" width="200" height="26" as="geometry" />
        </mxCell>
        <mxCell id="8yw6Mq8DgCn_tEcuC7Rp-22" value="+ operator*: BigRealNumber" style="text;strokeColor=none;fillColor=none;align=left;verticalAlign=top;spacingLeft=4;spacingRight=4;overflow=hidden;rotatable=0;points=[[0,0.5],[1,0.5]];portConstraint=eastwest;whiteSpace=wrap;html=1;" vertex="1" parent="8yw6Mq8DgCn_tEcuC7Rp-1">
          <mxGeometry y="372" width="200" height="26" as="geometry" />
        </mxCell>
        <mxCell id="8yw6Mq8DgCn_tEcuC7Rp-23" value="+ operator/: BigRealNumber" style="text;strokeColor=none;fillColor=none;align=left;verticalAlign=top;spacingLeft=4;spacingRight=4;overflow=hidden;rotatable=0;points=[[0,0.5],[1,0.5]];portConstraint=eastwest;whiteSpace=wrap;html=1;" vertex="1" parent="8yw6Mq8DgCn_tEcuC7Rp-1">
          <mxGeometry y="398" width="200" height="26" as="geometry" />
        </mxCell>
        <mxCell id="8yw6Mq8DgCn_tEcuC7Rp-25" value="+ operator==: bool" style="text;strokeColor=none;fillColor=none;align=left;verticalAlign=top;spacingLeft=4;spacingRight=4;overflow=hidden;rotatable=0;points=[[0,0.5],[1,0.5]];portConstraint=eastwest;whiteSpace=wrap;html=1;" vertex="1" parent="8yw6Mq8DgCn_tEcuC7Rp-1">
          <mxGeometry y="424" width="200" height="26" as="geometry" />
        </mxCell>
        <mxCell id="8yw6Mq8DgCn_tEcuC7Rp-24" value="+ operator!=: bool" style="text;strokeColor=none;fillColor=none;align=left;verticalAlign=top;spacingLeft=4;spacingRight=4;overflow=hidden;rotatable=0;points=[[0,0.5],[1,0.5]];portConstraint=eastwest;whiteSpace=wrap;html=1;" vertex="1" parent="8yw6Mq8DgCn_tEcuC7Rp-1">
          <mxGeometry y="450" width="200" height="26" as="geometry" />
        </mxCell>
        <mxCell id="8yw6Mq8DgCn_tEcuC7Rp-26" value="+ operator&amp;gt;: bool" style="text;strokeColor=none;fillColor=none;align=left;verticalAlign=top;spacingLeft=4;spacingRight=4;overflow=hidden;rotatable=0;points=[[0,0.5],[1,0.5]];portConstraint=eastwest;whiteSpace=wrap;html=1;" vertex="1" parent="8yw6Mq8DgCn_tEcuC7Rp-1">
          <mxGeometry y="476" width="200" height="26" as="geometry" />
        </mxCell>
        <mxCell id="8yw6Mq8DgCn_tEcuC7Rp-27" value="+ operator&amp;lt;: bool" style="text;strokeColor=none;fillColor=none;align=left;verticalAlign=top;spacingLeft=4;spacingRight=4;overflow=hidden;rotatable=0;points=[[0,0.5],[1,0.5]];portConstraint=eastwest;whiteSpace=wrap;html=1;" vertex="1" parent="8yw6Mq8DgCn_tEcuC7Rp-1">
          <mxGeometry y="502" width="200" height="26" as="geometry" />
        </mxCell>
        <mxCell id="8yw6Mq8DgCn_tEcuC7Rp-28" value="+ operator&amp;lt;=: bool" style="text;strokeColor=none;fillColor=none;align=left;verticalAlign=top;spacingLeft=4;spacingRight=4;overflow=hidden;rotatable=0;points=[[0,0.5],[1,0.5]];portConstraint=eastwest;whiteSpace=wrap;html=1;" vertex="1" parent="8yw6Mq8DgCn_tEcuC7Rp-1">
          <mxGeometry y="528" width="200" height="26" as="geometry" />
        </mxCell>
        <mxCell id="8yw6Mq8DgCn_tEcuC7Rp-29" value="+ operator&amp;gt;=: bool" style="text;strokeColor=none;fillColor=none;align=left;verticalAlign=top;spacingLeft=4;spacingRight=4;overflow=hidden;rotatable=0;points=[[0,0.5],[1,0.5]];portConstraint=eastwest;whiteSpace=wrap;html=1;" vertex="1" parent="8yw6Mq8DgCn_tEcuC7Rp-1">
          <mxGeometry y="554" width="200" height="26" as="geometry" />
        </mxCell>
        <mxCell id="8yw6Mq8DgCn_tEcuC7Rp-37" value="Action" style="swimlane;fontStyle=1;align=center;verticalAlign=top;childLayout=stackLayout;horizontal=1;startSize=26;horizontalStack=0;resizeParent=1;resizeParentMax=0;resizeLast=0;collapsible=1;marginBottom=0;whiteSpace=wrap;html=1;" vertex="1" parent="1">
          <mxGeometry x="140" y="250" width="160" height="190" as="geometry" />
        </mxCell>
        <mxCell id="8yw6Mq8DgCn_tEcuC7Rp-38" value="+ term1: BigRealNumber" style="text;strokeColor=none;fillColor=none;align=left;verticalAlign=top;spacingLeft=4;spacingRight=4;overflow=hidden;rotatable=0;points=[[0,0.5],[1,0.5]];portConstraint=eastwest;whiteSpace=wrap;html=1;" vertex="1" parent="8yw6Mq8DgCn_tEcuC7Rp-37">
          <mxGeometry y="26" width="160" height="26" as="geometry" />
        </mxCell>
        <mxCell id="8yw6Mq8DgCn_tEcuC7Rp-42" value="+ term2: BigRealNumber" style="text;strokeColor=none;fillColor=none;align=left;verticalAlign=top;spacingLeft=4;spacingRight=4;overflow=hidden;rotatable=0;points=[[0,0.5],[1,0.5]];portConstraint=eastwest;whiteSpace=wrap;html=1;" vertex="1" parent="8yw6Mq8DgCn_tEcuC7Rp-37">
          <mxGeometry y="52" width="160" height="26" as="geometry" />
        </mxCell>
        <mxCell id="8yw6Mq8DgCn_tEcuC7Rp-43" value="+ oper: Operatinon" style="text;strokeColor=none;fillColor=none;align=left;verticalAlign=top;spacingLeft=4;spacingRight=4;overflow=hidden;rotatable=0;points=[[0,0.5],[1,0.5]];portConstraint=eastwest;whiteSpace=wrap;html=1;" vertex="1" parent="8yw6Mq8DgCn_tEcuC7Rp-37">
          <mxGeometry y="78" width="160" height="26" as="geometry" />
        </mxCell>
        <mxCell id="8yw6Mq8DgCn_tEcuC7Rp-41" value="+ res: Result" style="text;strokeColor=none;fillColor=none;align=left;verticalAlign=top;spacingLeft=4;spacingRight=4;overflow=hidden;rotatable=0;points=[[0,0.5],[1,0.5]];portConstraint=eastwest;whiteSpace=wrap;html=1;" vertex="1" parent="8yw6Mq8DgCn_tEcuC7Rp-37">
          <mxGeometry y="104" width="160" height="26" as="geometry" />
        </mxCell>
        <mxCell id="8yw6Mq8DgCn_tEcuC7Rp-39" value="" style="line;strokeWidth=1;fillColor=none;align=left;verticalAlign=middle;spacingTop=-1;spacingLeft=3;spacingRight=3;rotatable=0;labelPosition=right;points=[];portConstraint=eastwest;strokeColor=inherit;" vertex="1" parent="8yw6Mq8DgCn_tEcuC7Rp-37">
          <mxGeometry y="130" width="160" height="8" as="geometry" />
        </mxCell>
        <mxCell id="8yw6Mq8DgCn_tEcuC7Rp-40" value="+ Action: -" style="text;strokeColor=none;fillColor=none;align=left;verticalAlign=top;spacingLeft=4;spacingRight=4;overflow=hidden;rotatable=0;points=[[0,0.5],[1,0.5]];portConstraint=eastwest;whiteSpace=wrap;html=1;" vertex="1" parent="8yw6Mq8DgCn_tEcuC7Rp-37">
          <mxGeometry y="138" width="160" height="26" as="geometry" />
        </mxCell>
        <mxCell id="8yw6Mq8DgCn_tEcuC7Rp-44" value="+ Action: Result" style="text;strokeColor=none;fillColor=none;align=left;verticalAlign=top;spacingLeft=4;spacingRight=4;overflow=hidden;rotatable=0;points=[[0,0.5],[1,0.5]];portConstraint=eastwest;whiteSpace=wrap;html=1;" vertex="1" parent="8yw6Mq8DgCn_tEcuC7Rp-37">
          <mxGeometry y="164" width="160" height="26" as="geometry" />
        </mxCell>
        <mxCell id="8yw6Mq8DgCn_tEcuC7Rp-45" value="" style="endArrow=diamondThin;endFill=1;endSize=24;html=1;rounded=0;exitX=0;exitY=0.5;exitDx=0;exitDy=0;entryX=1;entryY=0.5;entryDx=0;entryDy=0;" edge="1" parent="1" source="8yw6Mq8DgCn_tEcuC7Rp-15" target="8yw6Mq8DgCn_tEcuC7Rp-43">
          <mxGeometry width="160" relative="1" as="geometry">
            <mxPoint x="280" y="430" as="sourcePoint" />
            <mxPoint x="440" y="430" as="targetPoint" />
          </mxGeometry>
        </mxCell>
        <mxCell id="8yw6Mq8DgCn_tEcuC7Rp-46" value="main" style="rounded=1;whiteSpace=wrap;html=1;" vertex="1" parent="1">
          <mxGeometry x="160" y="90" width="120" height="60" as="geometry" />
        </mxCell>
        <mxCell id="8yw6Mq8DgCn_tEcuC7Rp-47" value="" style="endArrow=diamondThin;endFill=1;endSize=24;html=1;rounded=0;entryX=0.5;entryY=1;entryDx=0;entryDy=0;exitX=0.5;exitY=0;exitDx=0;exitDy=0;" edge="1" parent="1" source="8yw6Mq8DgCn_tEcuC7Rp-37" target="8yw6Mq8DgCn_tEcuC7Rp-46">
          <mxGeometry width="160" relative="1" as="geometry">
            <mxPoint x="370" y="174" as="sourcePoint" />
            <mxPoint x="140" y="90" as="targetPoint" />
          </mxGeometry>
        </mxCell>
        <mxCell id="8yw6Mq8DgCn_tEcuC7Rp-49" value="ActionsFromXML" style="swimlane;fontStyle=1;align=center;verticalAlign=top;childLayout=stackLayout;horizontal=1;startSize=26;horizontalStack=0;resizeParent=1;resizeParentMax=0;resizeLast=0;collapsible=1;marginBottom=0;whiteSpace=wrap;html=1;" vertex="1" parent="1">
          <mxGeometry x="-130" y="270" width="230" height="112" as="geometry" />
        </mxCell>
        <mxCell id="8yw6Mq8DgCn_tEcuC7Rp-50" value="+ actions: QList&amp;lt;Action*&amp;gt;" style="text;strokeColor=none;fillColor=none;align=left;verticalAlign=top;spacingLeft=4;spacingRight=4;overflow=hidden;rotatable=0;points=[[0,0.5],[1,0.5]];portConstraint=eastwest;whiteSpace=wrap;html=1;" vertex="1" parent="8yw6Mq8DgCn_tEcuC7Rp-49">
          <mxGeometry y="26" width="230" height="26" as="geometry" />
        </mxCell>
        <mxCell id="8yw6Mq8DgCn_tEcuC7Rp-51" value="" style="line;strokeWidth=1;fillColor=none;align=left;verticalAlign=middle;spacingTop=-1;spacingLeft=3;spacingRight=3;rotatable=0;labelPosition=right;points=[];portConstraint=eastwest;strokeColor=inherit;" vertex="1" parent="8yw6Mq8DgCn_tEcuC7Rp-49">
          <mxGeometry y="52" width="230" height="8" as="geometry" />
        </mxCell>
        <mxCell id="8yw6Mq8DgCn_tEcuC7Rp-52" value="+ ActionFromXML: -&lt;br&gt;" style="text;strokeColor=none;fillColor=none;align=left;verticalAlign=top;spacingLeft=4;spacingRight=4;overflow=hidden;rotatable=0;points=[[0,0.5],[1,0.5]];portConstraint=eastwest;whiteSpace=wrap;html=1;" vertex="1" parent="8yw6Mq8DgCn_tEcuC7Rp-49">
          <mxGeometry y="60" width="230" height="26" as="geometry" />
        </mxCell>
        <mxCell id="8yw6Mq8DgCn_tEcuC7Rp-53" value="+ getActions: QList&amp;lt;Action*&amp;gt;*" style="text;strokeColor=none;fillColor=none;align=left;verticalAlign=top;spacingLeft=4;spacingRight=4;overflow=hidden;rotatable=0;points=[[0,0.5],[1,0.5]];portConstraint=eastwest;whiteSpace=wrap;html=1;" vertex="1" parent="8yw6Mq8DgCn_tEcuC7Rp-49">
          <mxGeometry y="86" width="230" height="26" as="geometry" />
        </mxCell>
        <mxCell id="8yw6Mq8DgCn_tEcuC7Rp-55" value="" style="endArrow=diamondThin;endFill=1;endSize=24;html=1;rounded=0;exitX=0;exitY=0.5;exitDx=0;exitDy=0;entryX=1;entryY=0.5;entryDx=0;entryDy=0;" edge="1" parent="1" source="8yw6Mq8DgCn_tEcuC7Rp-43" target="8yw6Mq8DgCn_tEcuC7Rp-52">
          <mxGeometry width="160" relative="1" as="geometry">
            <mxPoint x="90" y="370" as="sourcePoint" />
            <mxPoint x="250" y="370" as="targetPoint" />
          </mxGeometry>
        </mxCell>
        <mxCell id="8yw6Mq8DgCn_tEcuC7Rp-56" value="ResultActonsToTxt" style="swimlane;fontStyle=1;align=center;verticalAlign=top;childLayout=stackLayout;horizontal=1;startSize=26;horizontalStack=0;resizeParent=1;resizeParentMax=0;resizeLast=0;collapsible=1;marginBottom=0;whiteSpace=wrap;html=1;" vertex="1" parent="1">
          <mxGeometry x="-150" y="64" width="230" height="112" as="geometry" />
        </mxCell>
        <mxCell id="8yw6Mq8DgCn_tEcuC7Rp-57" value="+ path: QString" style="text;strokeColor=none;fillColor=none;align=left;verticalAlign=top;spacingLeft=4;spacingRight=4;overflow=hidden;rotatable=0;points=[[0,0.5],[1,0.5]];portConstraint=eastwest;whiteSpace=wrap;html=1;" vertex="1" parent="8yw6Mq8DgCn_tEcuC7Rp-56">
          <mxGeometry y="26" width="230" height="26" as="geometry" />
        </mxCell>
        <mxCell id="8yw6Mq8DgCn_tEcuC7Rp-58" value="" style="line;strokeWidth=1;fillColor=none;align=left;verticalAlign=middle;spacingTop=-1;spacingLeft=3;spacingRight=3;rotatable=0;labelPosition=right;points=[];portConstraint=eastwest;strokeColor=inherit;" vertex="1" parent="8yw6Mq8DgCn_tEcuC7Rp-56">
          <mxGeometry y="52" width="230" height="8" as="geometry" />
        </mxCell>
        <mxCell id="8yw6Mq8DgCn_tEcuC7Rp-59" value="+ ResultActonsToTxt: -" style="text;strokeColor=none;fillColor=none;align=left;verticalAlign=top;spacingLeft=4;spacingRight=4;overflow=hidden;rotatable=0;points=[[0,0.5],[1,0.5]];portConstraint=eastwest;whiteSpace=wrap;html=1;" vertex="1" parent="8yw6Mq8DgCn_tEcuC7Rp-56">
          <mxGeometry y="60" width="230" height="26" as="geometry" />
        </mxCell>
        <mxCell id="8yw6Mq8DgCn_tEcuC7Rp-60" value="+ writeResult: void" style="text;strokeColor=none;fillColor=none;align=left;verticalAlign=top;spacingLeft=4;spacingRight=4;overflow=hidden;rotatable=0;points=[[0,0.5],[1,0.5]];portConstraint=eastwest;whiteSpace=wrap;html=1;" vertex="1" parent="8yw6Mq8DgCn_tEcuC7Rp-56">
          <mxGeometry y="86" width="230" height="26" as="geometry" />
        </mxCell>
        <mxCell id="8yw6Mq8DgCn_tEcuC7Rp-61" value="" style="endArrow=diamondThin;endFill=1;endSize=24;html=1;rounded=0;exitX=1;exitY=0.763;exitDx=0;exitDy=0;exitPerimeter=0;entryX=0;entryY=0.5;entryDx=0;entryDy=0;" edge="1" parent="1" source="8yw6Mq8DgCn_tEcuC7Rp-58" target="8yw6Mq8DgCn_tEcuC7Rp-46">
          <mxGeometry width="160" relative="1" as="geometry">
            <mxPoint x="90" y="370" as="sourcePoint" />
            <mxPoint x="250" y="370" as="targetPoint" />
          </mxGeometry>
        </mxCell>
        <mxCell id="8yw6Mq8DgCn_tEcuC7Rp-62" value="" style="endArrow=diamondThin;endFill=1;endSize=24;html=1;rounded=0;exitX=0.5;exitY=0;exitDx=0;exitDy=0;entryX=0.25;entryY=1;entryDx=0;entryDy=0;" edge="1" parent="1" source="8yw6Mq8DgCn_tEcuC7Rp-49" target="8yw6Mq8DgCn_tEcuC7Rp-46">
          <mxGeometry width="160" relative="1" as="geometry">
            <mxPoint x="100" y="178" as="sourcePoint" />
            <mxPoint x="170" y="130" as="targetPoint" />
          </mxGeometry>
        </mxCell>
      </root>
    </mxGraphModel>
  </diagram>
  <diagram id="BLlaj0ky6Ld36Yin2v9j" name="потоки данных">
    <mxGraphModel dx="3062" dy="1403" grid="1" gridSize="10" guides="1" tooltips="1" connect="1" arrows="1" fold="1" page="0" pageScale="1" pageWidth="827" pageHeight="1169" math="0" shadow="0">
      <root>
        <mxCell id="0" />
        <mxCell id="1" parent="0" />
        <mxCell id="gbYRpLeysotcFJMdVDQk-81" style="edgeStyle=orthogonalEdgeStyle;rounded=0;orthogonalLoop=1;jettySize=auto;html=1;" edge="1" parent="1" source="gbYRpLeysotcFJMdVDQk-4" target="gbYRpLeysotcFJMdVDQk-12">
          <mxGeometry relative="1" as="geometry" />
        </mxCell>
        <mxCell id="gbYRpLeysotcFJMdVDQk-4" value="ActionsFromXML::ActionsFromXML" style="rounded=0;whiteSpace=wrap;html=1;" vertex="1" parent="1">
          <mxGeometry x="-95" y="60" width="206" height="60" as="geometry" />
        </mxCell>
        <mxCell id="gbYRpLeysotcFJMdVDQk-6" value="ActionsFromXML::getActions" style="rounded=0;whiteSpace=wrap;html=1;" vertex="1" parent="1">
          <mxGeometry x="200" y="62.5" width="206" height="60" as="geometry" />
        </mxCell>
        <mxCell id="gbYRpLeysotcFJMdVDQk-128" style="edgeStyle=orthogonalEdgeStyle;rounded=0;orthogonalLoop=1;jettySize=auto;html=1;entryX=0.479;entryY=0.991;entryDx=0;entryDy=0;entryPerimeter=0;" edge="1" parent="1" source="gbYRpLeysotcFJMdVDQk-8" target="gbYRpLeysotcFJMdVDQk-14">
          <mxGeometry relative="1" as="geometry" />
        </mxCell>
        <mxCell id="gbYRpLeysotcFJMdVDQk-8" value="Action::perform" style="rounded=0;whiteSpace=wrap;html=1;" vertex="1" parent="1">
          <mxGeometry x="620" y="112.5" width="220" height="60" as="geometry" />
        </mxCell>
        <mxCell id="gbYRpLeysotcFJMdVDQk-122" style="edgeStyle=orthogonalEdgeStyle;rounded=0;orthogonalLoop=1;jettySize=auto;html=1;entryX=0;entryY=0.5;entryDx=0;entryDy=0;" edge="1" parent="1" source="gbYRpLeysotcFJMdVDQk-9" target="gbYRpLeysotcFJMdVDQk-14">
          <mxGeometry relative="1" as="geometry" />
        </mxCell>
        <mxCell id="gbYRpLeysotcFJMdVDQk-9" value="ResultActionsToTxt::ResultActionsToTxt" style="rounded=0;whiteSpace=wrap;html=1;" vertex="1" parent="1">
          <mxGeometry x="290" y="-52.5" width="236" height="60" as="geometry" />
        </mxCell>
        <mxCell id="gbYRpLeysotcFJMdVDQk-11" style="edgeStyle=orthogonalEdgeStyle;rounded=0;orthogonalLoop=1;jettySize=auto;html=1;" edge="1" parent="1" source="gbYRpLeysotcFJMdVDQk-12" target="gbYRpLeysotcFJMdVDQk-16">
          <mxGeometry relative="1" as="geometry" />
        </mxCell>
        <mxCell id="gbYRpLeysotcFJMdVDQk-12" value="ActionsFromXML::loadActions" style="rounded=0;whiteSpace=wrap;html=1;" vertex="1" parent="1">
          <mxGeometry x="-95" y="221" width="206" height="60" as="geometry" />
        </mxCell>
        <mxCell id="gbYRpLeysotcFJMdVDQk-14" value="ResultActionsToTxt::writeResults" style="rounded=0;whiteSpace=wrap;html=1;" vertex="1" parent="1">
          <mxGeometry x="616" y="-52.5" width="236" height="60" as="geometry" />
        </mxCell>
        <mxCell id="gbYRpLeysotcFJMdVDQk-15" style="edgeStyle=orthogonalEdgeStyle;rounded=0;orthogonalLoop=1;jettySize=auto;html=1;entryX=0.5;entryY=0;entryDx=0;entryDy=0;" edge="1" parent="1" source="gbYRpLeysotcFJMdVDQk-16" target="gbYRpLeysotcFJMdVDQk-18">
          <mxGeometry relative="1" as="geometry" />
        </mxCell>
        <mxCell id="gbYRpLeysotcFJMdVDQk-16" value="Action::Actions" style="rounded=0;whiteSpace=wrap;html=1;" vertex="1" parent="1">
          <mxGeometry x="-102" y="350" width="220" height="60" as="geometry" />
        </mxCell>
        <mxCell id="gbYRpLeysotcFJMdVDQk-17" style="edgeStyle=orthogonalEdgeStyle;rounded=0;orthogonalLoop=1;jettySize=auto;html=1;" edge="1" parent="1" source="gbYRpLeysotcFJMdVDQk-18">
          <mxGeometry relative="1" as="geometry">
            <mxPoint x="8" y="580" as="targetPoint" />
          </mxGeometry>
        </mxCell>
        <mxCell id="gbYRpLeysotcFJMdVDQk-18" value="Action::setTerm" style="rounded=0;whiteSpace=wrap;html=1;" vertex="1" parent="1">
          <mxGeometry x="-52" y="460" width="120" height="60" as="geometry" />
        </mxCell>
        <mxCell id="gbYRpLeysotcFJMdVDQk-19" value="Action::setOperation" style="rounded=0;whiteSpace=wrap;html=1;" vertex="1" parent="1">
          <mxGeometry x="-195" y="460" width="120" height="60" as="geometry" />
        </mxCell>
        <mxCell id="gbYRpLeysotcFJMdVDQk-20" value="Action::checkAction" style="rounded=0;whiteSpace=wrap;html=1;" vertex="1" parent="1">
          <mxGeometry x="95" y="460" width="120" height="60" as="geometry" />
        </mxCell>
        <mxCell id="gbYRpLeysotcFJMdVDQk-21" value="" style="endArrow=classic;html=1;rounded=0;exitX=0.5;exitY=1;exitDx=0;exitDy=0;entryX=0.5;entryY=0;entryDx=0;entryDy=0;" edge="1" parent="1" source="gbYRpLeysotcFJMdVDQk-16" target="gbYRpLeysotcFJMdVDQk-19">
          <mxGeometry width="50" height="50" relative="1" as="geometry">
            <mxPoint x="295" y="370" as="sourcePoint" />
            <mxPoint x="345" y="320" as="targetPoint" />
          </mxGeometry>
        </mxCell>
        <mxCell id="gbYRpLeysotcFJMdVDQk-22" value="" style="endArrow=classic;html=1;rounded=0;exitX=0.5;exitY=1;exitDx=0;exitDy=0;entryX=0.5;entryY=0;entryDx=0;entryDy=0;" edge="1" parent="1" source="gbYRpLeysotcFJMdVDQk-16" target="gbYRpLeysotcFJMdVDQk-20">
          <mxGeometry width="50" height="50" relative="1" as="geometry">
            <mxPoint x="295" y="370" as="sourcePoint" />
            <mxPoint x="345" y="320" as="targetPoint" />
          </mxGeometry>
        </mxCell>
        <mxCell id="gbYRpLeysotcFJMdVDQk-25" value="Aciton::setErrorResutl" style="rounded=0;whiteSpace=wrap;html=1;" vertex="1" parent="1">
          <mxGeometry x="-52" y="580" width="120" height="60" as="geometry" />
        </mxCell>
        <mxCell id="gbYRpLeysotcFJMdVDQk-26" value="" style="endArrow=classic;html=1;rounded=0;exitX=0.5;exitY=1;exitDx=0;exitDy=0;entryX=0.5;entryY=0;entryDx=0;entryDy=0;" edge="1" parent="1" source="gbYRpLeysotcFJMdVDQk-19" target="gbYRpLeysotcFJMdVDQk-25">
          <mxGeometry width="50" height="50" relative="1" as="geometry">
            <mxPoint x="85" y="410" as="sourcePoint" />
            <mxPoint x="135" y="360" as="targetPoint" />
          </mxGeometry>
        </mxCell>
        <mxCell id="gbYRpLeysotcFJMdVDQk-27" value="" style="endArrow=classic;html=1;rounded=0;exitX=0.5;exitY=1;exitDx=0;exitDy=0;entryX=0.5;entryY=0;entryDx=0;entryDy=0;" edge="1" parent="1" source="gbYRpLeysotcFJMdVDQk-20" target="gbYRpLeysotcFJMdVDQk-25">
          <mxGeometry width="50" height="50" relative="1" as="geometry">
            <mxPoint x="85" y="410" as="sourcePoint" />
            <mxPoint x="135" y="360" as="targetPoint" />
          </mxGeometry>
        </mxCell>
        <mxCell id="gbYRpLeysotcFJMdVDQk-38" value="BigRealNumber::toString" style="rounded=0;whiteSpace=wrap;html=1;" vertex="1" parent="1">
          <mxGeometry x="645" y="262.5" width="170" height="60" as="geometry" />
        </mxCell>
        <mxCell id="gbYRpLeysotcFJMdVDQk-42" value="" style="ellipse;html=1;shape=endState;fillColor=#000000;strokeColor=#ff0000;" vertex="1" parent="1">
          <mxGeometry x="852" y="-142.5" width="30" height="30" as="geometry" />
        </mxCell>
        <mxCell id="gbYRpLeysotcFJMdVDQk-43" value="" style="ellipse;html=1;shape=startState;fillColor=#000000;strokeColor=#ff0000;" vertex="1" parent="1">
          <mxGeometry x="-255" y="-90" width="30" height="30" as="geometry" />
        </mxCell>
        <mxCell id="gbYRpLeysotcFJMdVDQk-56" value="путь до xml файла" style="shape=note;size=20;whiteSpace=wrap;html=1;" vertex="1" parent="1">
          <mxGeometry x="-282" y="60" width="100" height="50" as="geometry" />
        </mxCell>
        <mxCell id="gbYRpLeysotcFJMdVDQk-58" value="операнды" style="shape=note;size=20;whiteSpace=wrap;html=1;" vertex="1" parent="1">
          <mxGeometry x="150" y="380" width="100" height="40" as="geometry" />
        </mxCell>
        <mxCell id="gbYRpLeysotcFJMdVDQk-60" value="путь до файла" style="shape=note;size=12;whiteSpace=wrap;html=1;" vertex="1" parent="1">
          <mxGeometry x="80" y="150" width="130" height="40" as="geometry" />
        </mxCell>
        <mxCell id="gbYRpLeysotcFJMdVDQk-62" value="" style="endArrow=none;dashed=1;html=1;dashPattern=1 3;strokeWidth=2;rounded=0;exitX=0;exitY=0;exitDx=80;exitDy=0;exitPerimeter=0;" edge="1" parent="1" source="gbYRpLeysotcFJMdVDQk-56">
          <mxGeometry width="50" height="50" relative="1" as="geometry">
            <mxPoint x="630" y="240" as="sourcePoint" />
            <mxPoint x="-150" y="-30" as="targetPoint" />
          </mxGeometry>
        </mxCell>
        <mxCell id="gbYRpLeysotcFJMdVDQk-76" value="" style="endArrow=classic;html=1;rounded=0;exitX=1;exitY=1;exitDx=0;exitDy=0;entryX=0.5;entryY=0;entryDx=0;entryDy=0;" edge="1" parent="1" source="gbYRpLeysotcFJMdVDQk-43" target="gbYRpLeysotcFJMdVDQk-4">
          <mxGeometry width="50" height="50" relative="1" as="geometry">
            <mxPoint x="680" y="260" as="sourcePoint" />
            <mxPoint x="730" y="210" as="targetPoint" />
          </mxGeometry>
        </mxCell>
        <mxCell id="gbYRpLeysotcFJMdVDQk-78" style="edgeStyle=orthogonalEdgeStyle;rounded=0;orthogonalLoop=1;jettySize=auto;html=1;exitX=0.5;exitY=1;exitDx=0;exitDy=0;exitPerimeter=0;" edge="1" parent="1" source="gbYRpLeysotcFJMdVDQk-60" target="gbYRpLeysotcFJMdVDQk-60">
          <mxGeometry relative="1" as="geometry" />
        </mxCell>
        <mxCell id="gbYRpLeysotcFJMdVDQk-79" value="" style="endArrow=none;dashed=1;html=1;dashPattern=1 3;strokeWidth=2;rounded=0;entryX=0;entryY=0.5;entryDx=0;entryDy=0;entryPerimeter=0;" edge="1" parent="1" target="gbYRpLeysotcFJMdVDQk-60">
          <mxGeometry width="50" height="50" relative="1" as="geometry">
            <mxPoint x="10" y="170" as="sourcePoint" />
            <mxPoint x="730" y="210" as="targetPoint" />
          </mxGeometry>
        </mxCell>
        <mxCell id="gbYRpLeysotcFJMdVDQk-82" value="операция, операнды" style="shape=note;size=18;whiteSpace=wrap;html=1;" vertex="1" parent="1">
          <mxGeometry x="95" y="290" width="100" height="40" as="geometry" />
        </mxCell>
        <mxCell id="gbYRpLeysotcFJMdVDQk-84" value="" style="endArrow=none;dashed=1;html=1;dashPattern=1 3;strokeWidth=2;rounded=0;entryX=0;entryY=0.5;entryDx=0;entryDy=0;entryPerimeter=0;" edge="1" parent="1" target="gbYRpLeysotcFJMdVDQk-82">
          <mxGeometry width="50" height="50" relative="1" as="geometry">
            <mxPoint x="10" y="310" as="sourcePoint" />
            <mxPoint x="740" y="290" as="targetPoint" />
            <Array as="points">
              <mxPoint x="70" y="310" />
            </Array>
          </mxGeometry>
        </mxCell>
        <mxCell id="gbYRpLeysotcFJMdVDQk-85" value="действие" style="shape=note;size=20;whiteSpace=wrap;html=1;" vertex="1" parent="1">
          <mxGeometry x="270" y="454" width="100" height="40" as="geometry" />
        </mxCell>
        <mxCell id="gbYRpLeysotcFJMdVDQk-86" value="операция" style="shape=note;size=20;whiteSpace=wrap;html=1;" vertex="1" parent="1">
          <mxGeometry x="-295" y="355" width="100" height="40" as="geometry" />
        </mxCell>
        <mxCell id="gbYRpLeysotcFJMdVDQk-87" value="" style="endArrow=none;dashed=1;html=1;dashPattern=1 3;strokeWidth=2;rounded=0;entryX=0;entryY=0.5;entryDx=0;entryDy=0;entryPerimeter=0;" edge="1" parent="1" target="gbYRpLeysotcFJMdVDQk-58">
          <mxGeometry width="50" height="50" relative="1" as="geometry">
            <mxPoint x="10" y="430" as="sourcePoint" />
            <mxPoint x="105" y="320" as="targetPoint" />
          </mxGeometry>
        </mxCell>
        <mxCell id="gbYRpLeysotcFJMdVDQk-88" value="" style="endArrow=none;dashed=1;html=1;dashPattern=1 3;strokeWidth=2;rounded=0;entryX=1;entryY=1;entryDx=0;entryDy=0;entryPerimeter=0;" edge="1" parent="1" target="gbYRpLeysotcFJMdVDQk-86">
          <mxGeometry width="50" height="50" relative="1" as="geometry">
            <mxPoint x="-70" y="440" as="sourcePoint" />
            <mxPoint x="220" y="425" as="targetPoint" />
          </mxGeometry>
        </mxCell>
        <mxCell id="gbYRpLeysotcFJMdVDQk-90" value="" style="endArrow=none;dashed=1;html=1;dashPattern=1 3;strokeWidth=2;rounded=0;entryX=0;entryY=0;entryDx=0;entryDy=0;entryPerimeter=0;" edge="1" parent="1" target="gbYRpLeysotcFJMdVDQk-85">
          <mxGeometry width="50" height="50" relative="1" as="geometry">
            <mxPoint x="90" y="440" as="sourcePoint" />
            <mxPoint x="160" y="410" as="targetPoint" />
          </mxGeometry>
        </mxCell>
        <mxCell id="gbYRpLeysotcFJMdVDQk-91" value="код ошибки" style="shape=note;size=20;whiteSpace=wrap;html=1;" vertex="1" parent="1">
          <mxGeometry x="160" y="580" width="100" height="40" as="geometry" />
        </mxCell>
        <mxCell id="gbYRpLeysotcFJMdVDQk-92" value="" style="endArrow=none;dashed=1;html=1;dashPattern=1 3;strokeWidth=2;rounded=0;exitX=0;exitY=0;exitDx=0;exitDy=0;exitPerimeter=0;" edge="1" parent="1" source="gbYRpLeysotcFJMdVDQk-91">
          <mxGeometry width="50" height="50" relative="1" as="geometry">
            <mxPoint x="100" y="450" as="sourcePoint" />
            <mxPoint x="100" y="540" as="targetPoint" />
          </mxGeometry>
        </mxCell>
        <mxCell id="gbYRpLeysotcFJMdVDQk-93" value="" style="endArrow=none;dashed=1;html=1;dashPattern=1 3;strokeWidth=2;rounded=0;exitX=0;exitY=0;exitDx=0;exitDy=0;exitPerimeter=0;" edge="1" parent="1" source="gbYRpLeysotcFJMdVDQk-91">
          <mxGeometry width="50" height="50" relative="1" as="geometry">
            <mxPoint x="170" y="590" as="sourcePoint" />
            <mxPoint x="10" y="540" as="targetPoint" />
          </mxGeometry>
        </mxCell>
        <mxCell id="gbYRpLeysotcFJMdVDQk-94" value="" style="endArrow=none;dashed=1;html=1;dashPattern=1 3;strokeWidth=2;rounded=0;exitX=0;exitY=0;exitDx=0;exitDy=0;exitPerimeter=0;" edge="1" parent="1" source="gbYRpLeysotcFJMdVDQk-91">
          <mxGeometry width="50" height="50" relative="1" as="geometry">
            <mxPoint x="170" y="590" as="sourcePoint" />
            <mxPoint x="-70" y="550" as="targetPoint" />
          </mxGeometry>
        </mxCell>
        <mxCell id="gbYRpLeysotcFJMdVDQk-95" value="" style="endArrow=classic;html=1;rounded=0;exitX=1;exitY=0.5;exitDx=0;exitDy=0;entryX=0;entryY=0.5;entryDx=0;entryDy=0;" edge="1" parent="1" source="gbYRpLeysotcFJMdVDQk-4" target="gbYRpLeysotcFJMdVDQk-6">
          <mxGeometry width="50" height="50" relative="1" as="geometry">
            <mxPoint x="-224" y="-54" as="sourcePoint" />
            <mxPoint x="18" y="70" as="targetPoint" />
          </mxGeometry>
        </mxCell>
        <mxCell id="gbYRpLeysotcFJMdVDQk-96" value="операции" style="shape=note;size=20;whiteSpace=wrap;html=1;" vertex="1" parent="1">
          <mxGeometry x="140" y="10" width="100" height="40" as="geometry" />
        </mxCell>
        <mxCell id="gbYRpLeysotcFJMdVDQk-97" value="" style="endArrow=none;dashed=1;html=1;dashPattern=1 3;strokeWidth=2;rounded=0;entryX=0.5;entryY=1;entryDx=0;entryDy=0;entryPerimeter=0;" edge="1" parent="1" target="gbYRpLeysotcFJMdVDQk-96">
          <mxGeometry width="50" height="50" relative="1" as="geometry">
            <mxPoint x="190" y="90" as="sourcePoint" />
            <mxPoint x="720" y="280" as="targetPoint" />
          </mxGeometry>
        </mxCell>
        <mxCell id="gbYRpLeysotcFJMdVDQk-99" value="действии" style="shape=note;size=12;whiteSpace=wrap;html=1;" vertex="1" parent="1">
          <mxGeometry x="-225" y="150" width="130" height="40" as="geometry" />
        </mxCell>
        <mxCell id="gbYRpLeysotcFJMdVDQk-100" value="" style="endArrow=none;dashed=1;html=1;dashPattern=1 3;strokeWidth=2;rounded=0;entryX=0;entryY=0;entryDx=130;entryDy=26;entryPerimeter=0;" edge="1" parent="1" target="gbYRpLeysotcFJMdVDQk-99">
          <mxGeometry width="50" height="50" relative="1" as="geometry">
            <mxPoint x="-40" y="176" as="sourcePoint" />
            <mxPoint x="90" y="180" as="targetPoint" />
          </mxGeometry>
        </mxCell>
        <mxCell id="gbYRpLeysotcFJMdVDQk-102" value="действие" style="shape=note;size=18;whiteSpace=wrap;html=1;" vertex="1" parent="1">
          <mxGeometry x="-210" y="290" width="100" height="40" as="geometry" />
        </mxCell>
        <mxCell id="gbYRpLeysotcFJMdVDQk-103" value="" style="endArrow=none;dashed=1;html=1;dashPattern=1 3;strokeWidth=2;rounded=0;entryX=0;entryY=0;entryDx=100;entryDy=29;entryPerimeter=0;" edge="1" parent="1" target="gbYRpLeysotcFJMdVDQk-102">
          <mxGeometry width="50" height="50" relative="1" as="geometry">
            <mxPoint x="-50" y="319" as="sourcePoint" />
            <mxPoint x="105" y="320" as="targetPoint" />
            <Array as="points" />
          </mxGeometry>
        </mxCell>
        <mxCell id="gbYRpLeysotcFJMdVDQk-104" value="" style="endArrow=classic;html=1;rounded=0;exitX=0.25;exitY=0;exitDx=0;exitDy=0;entryX=0.25;entryY=1;entryDx=0;entryDy=0;" edge="1" parent="1" source="gbYRpLeysotcFJMdVDQk-12" target="gbYRpLeysotcFJMdVDQk-4">
          <mxGeometry width="50" height="50" relative="1" as="geometry">
            <mxPoint x="670" y="330" as="sourcePoint" />
            <mxPoint x="720" y="280" as="targetPoint" />
          </mxGeometry>
        </mxCell>
        <mxCell id="gbYRpLeysotcFJMdVDQk-105" value="" style="endArrow=classic;html=1;rounded=0;exitX=0.25;exitY=0;exitDx=0;exitDy=0;entryX=0.226;entryY=1.001;entryDx=0;entryDy=0;entryPerimeter=0;" edge="1" parent="1" source="gbYRpLeysotcFJMdVDQk-16" target="gbYRpLeysotcFJMdVDQk-12">
          <mxGeometry width="50" height="50" relative="1" as="geometry">
            <mxPoint x="670" y="330" as="sourcePoint" />
            <mxPoint x="720" y="280" as="targetPoint" />
          </mxGeometry>
        </mxCell>
        <mxCell id="gbYRpLeysotcFJMdVDQk-106" value="" style="endArrow=classic;html=1;rounded=0;exitX=1;exitY=0.5;exitDx=0;exitDy=0;entryX=0;entryY=0.5;entryDx=0;entryDy=0;" edge="1" parent="1" source="gbYRpLeysotcFJMdVDQk-43" target="gbYRpLeysotcFJMdVDQk-9">
          <mxGeometry width="50" height="50" relative="1" as="geometry">
            <mxPoint x="-224" y="-54" as="sourcePoint" />
            <mxPoint x="18" y="70" as="targetPoint" />
          </mxGeometry>
        </mxCell>
        <mxCell id="gbYRpLeysotcFJMdVDQk-107" value="путь до txt файла" style="shape=note;size=20;whiteSpace=wrap;html=1;" vertex="1" parent="1">
          <mxGeometry x="140" y="-120" width="100" height="50" as="geometry" />
        </mxCell>
        <mxCell id="gbYRpLeysotcFJMdVDQk-108" value="" style="endArrow=none;dashed=1;html=1;dashPattern=1 3;strokeWidth=2;rounded=0;exitX=1;exitY=1;exitDx=0;exitDy=0;exitPerimeter=0;" edge="1" parent="1" source="gbYRpLeysotcFJMdVDQk-107">
          <mxGeometry width="50" height="50" relative="1" as="geometry">
            <mxPoint x="600" y="230" as="sourcePoint" />
            <mxPoint x="240" y="-30" as="targetPoint" />
          </mxGeometry>
        </mxCell>
        <mxCell id="gbYRpLeysotcFJMdVDQk-109" value="" style="endArrow=classic;html=1;rounded=0;entryX=0;entryY=1;entryDx=0;entryDy=0;exitX=0.75;exitY=0;exitDx=0;exitDy=0;" edge="1" parent="1" source="gbYRpLeysotcFJMdVDQk-14" target="gbYRpLeysotcFJMdVDQk-42">
          <mxGeometry width="50" height="50" relative="1" as="geometry">
            <mxPoint x="1066" y="-32.5" as="sourcePoint" />
            <mxPoint x="596" y="137.5" as="targetPoint" />
          </mxGeometry>
        </mxCell>
        <mxCell id="gbYRpLeysotcFJMdVDQk-113" value="" style="endArrow=classic;html=1;rounded=0;exitX=0.5;exitY=0;exitDx=0;exitDy=0;entryX=0.5;entryY=1;entryDx=0;entryDy=0;" edge="1" parent="1" source="gbYRpLeysotcFJMdVDQk-38" target="gbYRpLeysotcFJMdVDQk-8">
          <mxGeometry width="50" height="50" relative="1" as="geometry">
            <mxPoint x="320" y="202.5" as="sourcePoint" />
            <mxPoint x="370" y="152.5" as="targetPoint" />
          </mxGeometry>
        </mxCell>
        <mxCell id="gbYRpLeysotcFJMdVDQk-114" value="строковое представление числа" style="shape=note;size=20;whiteSpace=wrap;html=1;" vertex="1" parent="1">
          <mxGeometry x="850" y="192.5" width="120" height="60" as="geometry" />
        </mxCell>
        <mxCell id="gbYRpLeysotcFJMdVDQk-118" value="" style="endArrow=none;dashed=1;html=1;dashPattern=1 3;strokeWidth=2;rounded=0;entryX=0;entryY=0.5;entryDx=0;entryDy=0;entryPerimeter=0;" edge="1" parent="1" target="gbYRpLeysotcFJMdVDQk-114">
          <mxGeometry width="50" height="50" relative="1" as="geometry">
            <mxPoint x="730" y="222.5" as="sourcePoint" />
            <mxPoint x="370" y="152.5" as="targetPoint" />
          </mxGeometry>
        </mxCell>
        <mxCell id="gbYRpLeysotcFJMdVDQk-123" value="путь до txt файла" style="shape=note;size=20;whiteSpace=wrap;html=1;" vertex="1" parent="1">
          <mxGeometry x="516" y="-127.5" width="100" height="50" as="geometry" />
        </mxCell>
        <mxCell id="gbYRpLeysotcFJMdVDQk-124" value="" style="endArrow=none;dashed=1;html=1;dashPattern=1 3;strokeWidth=2;rounded=0;exitX=0.5;exitY=1;exitDx=0;exitDy=0;exitPerimeter=0;" edge="1" parent="1" source="gbYRpLeysotcFJMdVDQk-123">
          <mxGeometry width="50" height="50" relative="1" as="geometry">
            <mxPoint x="220" y="-57.5" as="sourcePoint" />
            <mxPoint x="570" y="-17.5" as="targetPoint" />
          </mxGeometry>
        </mxCell>
        <mxCell id="gbYRpLeysotcFJMdVDQk-125" value="" style="endArrow=classic;html=1;rounded=0;exitX=1;exitY=0.5;exitDx=0;exitDy=0;entryX=0;entryY=0.5;entryDx=0;entryDy=0;" edge="1" parent="1" source="gbYRpLeysotcFJMdVDQk-6" target="gbYRpLeysotcFJMdVDQk-8">
          <mxGeometry width="50" height="50" relative="1" as="geometry">
            <mxPoint x="490" y="82.5" as="sourcePoint" />
            <mxPoint x="510" y="202.5" as="targetPoint" />
          </mxGeometry>
        </mxCell>
        <mxCell id="gbYRpLeysotcFJMdVDQk-126" value="действия" style="shape=note;size=20;whiteSpace=wrap;html=1;" vertex="1" parent="1">
          <mxGeometry x="510" y="22.5" width="100" height="50" as="geometry" />
        </mxCell>
        <mxCell id="gbYRpLeysotcFJMdVDQk-127" value="" style="endArrow=none;dashed=1;html=1;dashPattern=1 3;strokeWidth=2;rounded=0;entryX=0.5;entryY=1;entryDx=0;entryDy=0;entryPerimeter=0;" edge="1" parent="1" target="gbYRpLeysotcFJMdVDQk-126">
          <mxGeometry width="50" height="50" relative="1" as="geometry">
            <mxPoint x="530" y="112.5" as="sourcePoint" />
            <mxPoint x="580" y="-7.5" as="targetPoint" />
          </mxGeometry>
        </mxCell>
        <mxCell id="gbYRpLeysotcFJMdVDQk-129" value="результаты" style="shape=note;size=20;whiteSpace=wrap;html=1;" vertex="1" parent="1">
          <mxGeometry x="780" y="32.5" width="100" height="50" as="geometry" />
        </mxCell>
        <mxCell id="gbYRpLeysotcFJMdVDQk-130" value="" style="endArrow=none;dashed=1;html=1;dashPattern=1 3;strokeWidth=2;rounded=0;entryX=0;entryY=0.5;entryDx=0;entryDy=0;entryPerimeter=0;" edge="1" parent="1" target="gbYRpLeysotcFJMdVDQk-129">
          <mxGeometry width="50" height="50" relative="1" as="geometry">
            <mxPoint x="730" y="52.5" as="sourcePoint" />
            <mxPoint x="570" y="82.5" as="targetPoint" />
          </mxGeometry>
        </mxCell>
      </root>
    </mxGraphModel>
  </diagram>
</mxfile>
